<svg width="177" height="42" viewBox="0 0 177 42" fill="none" xmlns="http://www.w3.org/2000/svg">
<circle cx="21" cy="21" r="21" fill="#BEFF01"/>
<path d="M22.5504 31.2904C20.9664 31.2904 19.708 30.9912 18.7752 30.3928C17.86 29.7944 17.2176 28.9672 16.848 27.9112C16.4784 26.8376 16.2936 25.5968 16.2936 24.1888V16.5064C16.2936 15.028 16.4784 13.7608 16.848 12.7048C17.2176 11.6312 17.86 10.804 18.7752 10.2232C19.708 9.6424 20.9664 9.352 22.5504 9.352C24.0816 9.352 25.2784 9.6072 26.1408 10.1176C27.0208 10.628 27.6368 11.3496 27.9888 12.2824C28.3584 13.2152 28.5432 14.2976 28.5432 15.5296V17.3248H24.3192V15.3184C24.3192 14.8256 24.2928 14.368 24.24 13.9456C24.1872 13.5056 24.0376 13.1536 23.7912 12.8896C23.5624 12.608 23.1576 12.4672 22.5768 12.4672C21.996 12.4672 21.5736 12.608 21.3096 12.8896C21.0456 13.1712 20.8784 13.5408 20.808 13.9984C20.7376 14.4384 20.7024 14.9312 20.7024 15.4768V25.192C20.7024 25.7904 20.7464 26.3184 20.8344 26.776C20.94 27.216 21.1248 27.5592 21.3888 27.8056C21.6704 28.0344 22.0664 28.1488 22.5768 28.1488C23.14 28.1488 23.536 28.0168 23.7648 27.7528C24.0112 27.4712 24.1608 27.1016 24.2136 26.644C24.284 26.1864 24.3192 25.7024 24.3192 25.192V23.1064H28.5432V24.8752C28.5432 26.1248 28.3672 27.2336 28.0152 28.2016C27.6632 29.152 27.056 29.9088 26.1936 30.472C25.3312 31.0176 24.1168 31.2904 22.5504 31.2904ZM28.0346 31L32.1794 9.616H37.0106L41.129 31H37.0898L36.3242 26.3008H32.945L32.1266 31H28.0346ZM33.341 23.6344H35.9018L34.6082 15.0016L33.341 23.6344ZM41.1841 31V9.616H46.7281C48.1713 9.616 49.4033 9.7832 50.4241 10.1176C51.4625 10.4344 52.2545 11.0064 52.8001 11.8336C53.3633 12.6608 53.6449 13.8048 53.6449 15.2656C53.6449 16.1456 53.5657 16.9288 53.4073 17.6152C53.2665 18.284 53.0025 18.8736 52.6153 19.384C52.2457 19.8768 51.7177 20.2728 51.0313 20.572L53.9881 31H49.5265L47.0713 21.3112H45.5401V31H41.1841ZM45.5401 18.724H46.8073C47.5113 18.724 48.0657 18.6096 48.4705 18.3808C48.8753 18.152 49.1569 17.8088 49.3153 17.3512C49.4913 16.876 49.5793 16.2952 49.5793 15.6088C49.5793 14.6232 49.3945 13.8752 49.0249 13.3648C48.6729 12.8368 48.0041 12.5728 47.0185 12.5728H45.5401V18.724ZM60.2494 31.2904C58.683 31.2904 57.4422 31.0088 56.527 30.4456C55.6118 29.8824 54.9518 29.0816 54.547 28.0432C54.1598 26.9872 53.9662 25.7288 53.9662 24.268V16.2952C53.9662 14.8344 54.1598 13.5848 54.547 12.5464C54.9518 11.508 55.6118 10.716 56.527 10.1704C57.4422 9.6248 58.683 9.352 60.2494 9.352C61.8334 9.352 63.083 9.6336 63.9982 10.1968C64.931 10.7424 65.591 11.5344 65.9782 12.5728C66.383 13.5936 66.5854 14.8344 66.5854 16.2952V24.268C66.5854 25.7288 66.383 26.9872 65.9782 28.0432C65.591 29.0816 64.931 29.8824 63.9982 30.4456C63.083 31.0088 61.8334 31.2904 60.2494 31.2904ZM60.2494 28.1488C60.8126 28.1488 61.2262 28.0256 61.4902 27.7792C61.7542 27.5152 61.9302 27.172 62.0182 26.7496C62.1062 26.3096 62.1502 25.8432 62.1502 25.3504V15.2392C62.1502 14.7464 62.1062 14.2888 62.0182 13.8664C61.9302 13.444 61.7542 13.1096 61.4902 12.8632C61.2262 12.5992 60.8126 12.4672 60.2494 12.4672C59.7214 12.4672 59.3254 12.5992 59.0614 12.8632C58.7974 13.1096 58.6214 13.444 58.5334 13.8664C58.4454 14.2888 58.4014 14.7464 58.4014 15.2392V25.3504C58.4014 25.8432 58.4366 26.3096 58.507 26.7496C58.595 27.172 58.771 27.5152 59.035 27.7792C59.299 28.0256 59.7038 28.1488 60.2494 28.1488ZM67.3819 31V9.616H71.7379V28.0432H76.7539V31H67.3819ZM77.2465 31V22.5256L73.0753 9.616H77.1673L79.4641 17.14L81.6025 9.616H85.5625L81.4441 22.5256V31H77.2465ZM85.2782 31V9.616H88.3142L93.0662 20.7568V9.616H96.6566V31H93.7526L89.0006 19.1728V31H85.2782ZM102.193 31L102.563 9.616H107.183L109.823 23.1064L112.647 9.616H117.109L117.479 31H114.311L113.967 16.5064L111.248 31H108.529L105.678 16.4008L105.387 31H102.193ZM124.456 31.2904C122.872 31.2904 121.614 30.9912 120.681 30.3928C119.766 29.7944 119.124 28.9672 118.754 27.9112C118.384 26.8376 118.2 25.5968 118.2 24.1888V16.5064C118.2 15.028 118.384 13.7608 118.754 12.7048C119.124 11.6312 119.766 10.804 120.681 10.2232C121.614 9.6424 122.872 9.352 124.456 9.352C125.988 9.352 127.184 9.6072 128.047 10.1176C128.927 10.628 129.543 11.3496 129.895 12.2824C130.264 13.2152 130.449 14.2976 130.449 15.5296V17.3248H126.225V15.3184C126.225 14.8256 126.199 14.368 126.146 13.9456C126.093 13.5056 125.944 13.1536 125.697 12.8896C125.468 12.608 125.064 12.4672 124.483 12.4672C123.902 12.4672 123.48 12.608 123.216 12.8896C122.952 13.1712 122.784 13.5408 122.714 13.9984C122.644 14.4384 122.608 14.9312 122.608 15.4768V25.192C122.608 25.7904 122.652 26.3184 122.74 26.776C122.846 27.216 123.031 27.5592 123.295 27.8056C123.576 28.0344 123.972 28.1488 124.483 28.1488C125.046 28.1488 125.442 28.0168 125.671 27.7528C125.917 27.4712 126.067 27.1016 126.12 26.644C126.19 26.1864 126.225 25.7024 126.225 25.192V23.1064H130.449V24.8752C130.449 26.1248 130.273 27.2336 129.921 28.2016C129.569 29.152 128.962 29.9088 128.1 30.472C127.237 31.0176 126.023 31.2904 124.456 31.2904ZM130.997 31V9.616H134.033L138.785 20.7568V9.616H142.375V31H139.471L134.719 19.1728V31H130.997ZM143.503 31V9.616H152.822V12.6256H147.859V18.3016H151.687V21.3376H147.859V28.0432H152.875V31H143.503ZM151.91 31L156.055 9.616H160.886L165.005 31H160.966L160.2 26.3008H156.821L156.002 31H151.91ZM157.217 23.6344H159.778L158.484 15.0016L157.217 23.6344ZM165.06 31V9.616H169.416V28.0432H174.432V31H165.06Z" fill="#1C1D1F"/>
</svg>
